<svg width="200" height="200" viewBox="0 0 200 200" fill="none" xmlns="http://www.w3.org/2000/svg">
  <!-- Recycle icon -->
  <path d="M100 40C70 40 45 65 45 95C45 107.5 49 118.5 56 127L68 114C63.5 108.5 61 102 61 95C61 74 78.5 56.5 100 56.5C121.5 56.5 139 74 139 95C139 102 136.5 108.5 132 114L144 127C151 118.5 155 107.5 155 95C155 65 130 40 100 40Z" fill="#2E7D32"/>
  
  <path d="M89 127.5L79 150L121 150L111 127.5L100 138.5L89 127.5Z" fill="#2E7D32"/>
  
  <path d="M120 75L100 40L80 75L95 75L100 65L105 75L120 75Z" fill="#2E7D32"/>
</svg> 